<svg width="108" height="108" viewBox="0 0 108 108" fill="none" xmlns="http://www.w3.org/2000/svg">
<path d="M52.3542 22.4402C53.2967 21.6159 54.7038 21.6157 55.6462 22.4402L63.3728 29.2009C63.7798 29.5571 64.2915 29.7715 64.8308 29.8123L75.1072 30.5886C76.3394 30.6817 77.3189 31.6611 77.4119 32.8933L78.1873 43.1687C78.228 43.7079 78.4426 44.2197 78.7986 44.6267L85.5593 52.3542C86.3839 53.2968 86.384 54.7037 85.5593 55.6462L78.7986 63.3728C78.4425 63.7798 78.228 64.2915 78.1873 64.8308L77.4119 75.1072C77.3188 76.3394 76.3394 77.3188 75.1072 77.4119L64.8308 78.1873C64.2915 78.228 63.7798 78.4424 63.3728 78.7986L55.6462 85.5593C54.7037 86.384 53.2968 86.3839 52.3542 85.5593L44.6277 78.7986C44.2206 78.4424 43.7081 78.228 43.1687 78.1873L32.8933 77.4119C31.6611 77.3189 30.6817 76.3394 30.5886 75.1072L29.8132 64.8308C29.7725 64.2915 29.5571 63.7799 29.2009 63.3728L22.4402 55.6462C21.6157 54.7038 21.6159 53.2967 22.4402 52.3542L29.2009 44.6267C29.5571 44.2196 29.7725 43.7081 29.8132 43.1687L30.5886 32.8933C30.6816 31.661 31.661 30.6816 32.8933 30.5886L43.1687 29.8123C43.7081 29.7715 44.2206 29.5571 44.6277 29.2009L52.3542 22.4402Z" fill="#005320"/>
<path fill-rule="evenodd" clip-rule="evenodd" d="M66.7982 36.7537C69.9155 36.697 73.081 37.2568 70.6213 40.5149C68.1941 43.73 65.7246 38.0462 64.1634 45.8733C64.1806 45.8904 64.1979 45.9076 64.2151 45.9248C66.5691 45.8583 70.362 45.2997 70.673 47.3674C71.2679 51.3227 66.7948 50.863 63.2852 50.7679C62.7858 53.6014 62.2863 56.4357 61.787 59.2692C60.5516 65.8906 59.8452 70.3451 53.1076 71.3255C51.943 71.495 49.4525 71.69 48.6129 71.1194C48.1808 70.8257 47.9965 70.3024 48.0446 69.5222C48.3011 65.3634 53.3669 67.9847 55.0191 65.4004C56.3836 63.2662 57.4626 53.9635 57.9122 50.7679C57.8778 50.7508 57.8434 50.7336 57.8089 50.7164C56.1215 50.7508 54.4334 50.7851 52.746 50.8194C51.6263 54.161 46.3695 63.9893 43.9633 65.761C43.2249 66.3047 41.5643 66.6181 40.4502 66.1732C39.7994 65.9134 39.2925 65.1939 39.0553 64.5245C38.2432 62.2322 35.6486 47.6709 36.7821 46.6461C42.4719 41.5023 41.4213 56.0779 43.085 57.8781C45.6992 57.5579 47.9603 49.3363 49.4395 47.1098C50.4874 45.5326 54.4993 45.6391 57.2406 45.8733C57.74 45.8904 58.2395 45.9076 58.7388 45.9248C59.1004 44.3277 59.4622 42.7302 59.8238 41.1332C61.1227 38.1075 63.2304 37.6115 66.7982 36.7537Z" fill="#C8DED1" stroke="black" stroke-width="0.25"/>
</svg>
